<svg width="32" height="32" viewBox="0 0 32 32" fill="none" xmlns="http://www.w3.org/2000/svg">
<g clip-path="url(#clip0)">
<path d="M16 0.000976562C7.1775 0.000976562 0 7.17848 0 16.0008C0 24.8231 7.1775 32.0006 16 32.0006C24.8225 32.0006 32 24.8231 32 16.0008C32 7.17848 24.8225 0.000976562 16 0.000976562ZM26.4266 7.54687C28.2228 9.75789 29.3286 12.5486 29.4206 15.5908C26.0933 14.902 23.0804 14.9828 20.4207 15.5043C19.9391 14.3781 19.4405 13.3051 18.9373 12.2911C21.8339 11.0432 24.3556 9.44944 26.4266 7.54687ZM24.6242 5.71503C22.5685 7.5914 20.1862 8.98069 17.7469 10.0064C15.9565 6.73234 14.2435 4.26682 13.2 2.86571C14.1036 2.67321 15.0399 2.56994 16 2.56994C19.2809 2.56994 22.2892 3.75406 24.6242 5.71503ZM10.6054 3.70473C11.3933 4.72581 13.2702 7.28244 15.2863 10.9199C10.2193 12.5707 5.30268 12.8489 2.94009 12.8747C3.92486 8.76096 6.80569 5.37832 10.6054 3.70473ZM2.583 15.4502C2.60835 15.4502 2.63284 15.4504 2.6587 15.4504C4.29119 15.4504 7.28215 15.3406 10.8033 14.6985C12.8123 14.3322 14.7172 13.8391 16.5047 13.228C16.97 14.1554 17.4326 15.1337 17.8812 16.1591C15.3783 16.9649 13.2677 18.1243 11.5958 19.2755C8.79218 21.2062 6.82813 23.3482 5.75567 24.6726C3.77004 22.3309 2.56896 19.3043 2.56896 16.0008C2.56896 15.8162 2.57547 15.6331 2.583 15.4502ZM7.60686 26.4751C8.53015 25.3126 10.4094 23.1966 13.1279 21.34C14.9753 20.0781 16.8866 19.1406 18.8543 18.5252C19.9959 21.4843 20.9706 24.7539 21.5517 28.2256C19.8582 28.9977 17.9795 29.4317 16 29.4317C12.8261 29.4317 9.90797 28.3227 7.60686 26.4751ZM23.9151 26.8423C23.3162 23.6539 22.4231 20.6559 21.3905 17.9161C23.9304 17.4875 26.5553 17.5759 29.2514 18.1815C28.6699 21.725 26.6982 24.805 23.9151 26.8423Z" fill="#EDEFF3"/>
</g>
<defs>
<clipPath id="clip0">
<rect width="32" height="32" fill="white"/>
</clipPath>
</defs>
</svg>
