<svg width="150" height="56" viewBox="0 0 150 56" fill="none" xmlns="http://www.w3.org/2000/svg">
<rect x="0.5" y="0.5" width="149" height="55" rx="3.5" fill="url(#paint0_linear)"/>
<path d="M41.76 33C41.6533 33 41.568 32.968 41.504 32.904C41.44 32.8293 41.408 32.7387 41.408 32.632V22.168C41.408 22.0613 41.44 21.976 41.504 21.912C41.568 21.8373 41.6533 21.8 41.76 21.8H42.56C42.6667 21.8 42.752 21.8373 42.816 21.912C42.88 21.976 42.912 22.0613 42.912 22.168V31.656H48.256C48.3733 31.656 48.464 31.6933 48.528 31.768C48.6027 31.832 48.64 31.9173 48.64 32.024V32.632C48.64 32.7387 48.6027 32.8293 48.528 32.904C48.4533 32.968 48.3627 33 48.256 33H41.76ZM53.2929 33.16C52.2049 33.16 51.3355 32.824 50.6849 32.152C50.0342 31.4693 49.6769 30.5413 49.6129 29.368L49.5969 28.824L49.6129 28.296C49.6769 27.144 50.0342 26.2267 50.6849 25.544C51.3355 24.8613 52.2049 24.52 53.2929 24.52C54.4662 24.52 55.3729 24.8933 56.0129 25.64C56.6635 26.3867 56.9889 27.4 56.9889 28.68V28.968C56.9889 29.0747 56.9515 29.1653 56.8769 29.24C56.8129 29.304 56.7275 29.336 56.6209 29.336H51.0689V29.48C51.1009 30.1733 51.3142 30.7653 51.7089 31.256C52.1035 31.7467 52.6262 31.992 53.2769 31.992C53.7782 31.992 54.1835 31.896 54.4929 31.704C54.8129 31.5013 55.0529 31.2933 55.2129 31.08C55.3089 30.952 55.3835 30.8773 55.4369 30.856C55.4902 30.824 55.5809 30.808 55.7089 30.808H56.4129C56.5089 30.808 56.5889 30.8347 56.6529 30.888C56.7275 30.9413 56.7649 31.0107 56.7649 31.096C56.7649 31.3307 56.6209 31.6133 56.3329 31.944C56.0449 32.2747 55.6342 32.5627 55.1009 32.808C54.5782 33.0427 53.9755 33.16 53.2929 33.16ZM55.5329 28.248V28.2C55.5329 27.4533 55.3302 26.8453 54.9249 26.376C54.5195 25.9067 53.9755 25.672 53.2929 25.672C52.5995 25.672 52.0555 25.9067 51.6609 26.376C51.2662 26.8453 51.0689 27.4533 51.0689 28.2V28.248H55.5329ZM62.0875 33C60.4342 33 59.6075 32.0667 59.6075 30.2V25.912H58.3435C58.2368 25.912 58.1515 25.88 58.0875 25.816C58.0235 25.752 57.9915 25.6667 57.9915 25.56V25.048C57.9915 24.9413 58.0235 24.856 58.0875 24.792C58.1515 24.7173 58.2368 24.68 58.3435 24.68H59.6075V22.008C59.6075 21.9013 59.6395 21.816 59.7035 21.752C59.7675 21.6773 59.8528 21.64 59.9595 21.64H60.6635C60.7702 21.64 60.8555 21.6773 60.9195 21.752C60.9942 21.816 61.0315 21.9013 61.0315 22.008V24.68H63.0155C63.1222 24.68 63.2075 24.7173 63.2715 24.792C63.3462 24.856 63.3835 24.9413 63.3835 25.048V25.56C63.3835 25.6667 63.3462 25.752 63.2715 25.816C63.2075 25.88 63.1222 25.912 63.0155 25.912H61.0315V30.088C61.0315 30.632 61.1168 31.0427 61.2875 31.32C61.4688 31.5973 61.7728 31.736 62.1995 31.736H63.1755C63.2822 31.736 63.3675 31.7733 63.4315 31.848C63.4955 31.912 63.5275 31.9973 63.5275 32.104V32.632C63.5275 32.7387 63.4955 32.8293 63.4315 32.904C63.3675 32.968 63.2822 33 63.1755 33H62.0875ZM65.0586 24.68C64.9733 24.68 64.9093 24.6533 64.8666 24.6C64.824 24.536 64.808 24.4507 64.8186 24.344L65.1706 22.104C65.2133 21.7947 65.3626 21.64 65.6186 21.64H66.6426C66.7173 21.64 66.776 21.6667 66.8186 21.72C66.872 21.7733 66.8986 21.8373 66.8986 21.912C66.8986 22.0187 66.8826 22.104 66.8506 22.168L66.0186 24.328C65.9653 24.4453 65.9066 24.536 65.8426 24.6C65.7786 24.6533 65.6826 24.68 65.5546 24.68H65.0586ZM70.9855 33.16C70.2495 33.16 69.6255 33.0427 69.1135 32.808C68.6122 32.5627 68.2388 32.2853 67.9935 31.976C67.7482 31.6667 67.6255 31.4107 67.6255 31.208C67.6255 31.1013 67.6628 31.0213 67.7375 30.968C67.8122 30.904 67.8922 30.872 67.9775 30.872H68.6495C68.7135 30.872 68.7615 30.8827 68.7935 30.904C68.8362 30.9253 68.8895 30.9733 68.9535 31.048C69.1988 31.3467 69.4708 31.5813 69.7695 31.752C70.0788 31.9227 70.4895 32.008 71.0015 32.008C71.5775 32.008 72.0362 31.9013 72.3775 31.688C72.7295 31.4747 72.9055 31.1653 72.9055 30.76C72.9055 30.4933 72.8308 30.28 72.6815 30.12C72.5322 29.96 72.2815 29.816 71.9295 29.688C71.5882 29.56 71.0762 29.4213 70.3935 29.272C69.4655 29.0693 68.8095 28.776 68.4255 28.392C68.0415 28.008 67.8495 27.512 67.8495 26.904C67.8495 26.5093 67.9668 26.1307 68.2015 25.768C68.4362 25.3947 68.7828 25.096 69.2415 24.872C69.7108 24.6373 70.2655 24.52 70.9055 24.52C71.5775 24.52 72.1482 24.632 72.6175 24.856C73.0975 25.08 73.4548 25.3413 73.6895 25.64C73.9348 25.9387 74.0575 26.1893 74.0575 26.392C74.0575 26.488 74.0202 26.568 73.9455 26.632C73.8815 26.696 73.8015 26.728 73.7055 26.728H73.0975C72.9482 26.728 72.8415 26.6693 72.7775 26.552C72.5962 26.3493 72.4415 26.1947 72.3135 26.088C72.1962 25.9707 72.0202 25.8747 71.7855 25.8C71.5508 25.7147 71.2575 25.672 70.9055 25.672C70.3828 25.672 69.9828 25.784 69.7055 26.008C69.4282 26.2213 69.2895 26.5093 69.2895 26.872C69.2895 27.096 69.3482 27.288 69.4655 27.448C69.5828 27.5973 69.8068 27.7413 70.1375 27.88C70.4682 28.008 70.9588 28.1413 71.6095 28.28C72.6228 28.4933 73.3375 28.7973 73.7535 29.192C74.1802 29.5867 74.3935 30.0933 74.3935 30.712C74.3935 31.1707 74.2602 31.5867 73.9935 31.96C73.7375 32.3333 73.3482 32.6267 72.8255 32.84C72.3135 33.0533 71.7002 33.16 70.9855 33.16ZM83.0563 33C81.4029 33 80.5763 32.0667 80.5763 30.2V25.912H79.3123C79.2056 25.912 79.1203 25.88 79.0563 25.816C78.9923 25.752 78.9603 25.6667 78.9603 25.56V25.048C78.9603 24.9413 78.9923 24.856 79.0563 24.792C79.1203 24.7173 79.2056 24.68 79.3123 24.68H80.5763V22.008C80.5763 21.9013 80.6083 21.816 80.6723 21.752C80.7363 21.6773 80.8216 21.64 80.9283 21.64H81.6323C81.7389 21.64 81.8243 21.6773 81.8883 21.752C81.9629 21.816 82.0003 21.9013 82.0003 22.008V24.68H83.9843C84.0909 24.68 84.1763 24.7173 84.2403 24.792C84.3149 24.856 84.3523 24.9413 84.3523 25.048V25.56C84.3523 25.6667 84.3149 25.752 84.2403 25.816C84.1763 25.88 84.0909 25.912 83.9843 25.912H82.0003V30.088C82.0003 30.632 82.0856 31.0427 82.2563 31.32C82.4376 31.5973 82.7416 31.736 83.1683 31.736H84.1443C84.2509 31.736 84.3363 31.7733 84.4003 31.848C84.4643 31.912 84.4963 31.9973 84.4963 32.104V32.632C84.4963 32.7387 84.4643 32.8293 84.4003 32.904C84.3363 32.968 84.2509 33 84.1443 33H83.0563ZM88.3634 33.16C87.8407 33.16 87.3554 33.0533 86.9074 32.84C86.47 32.6267 86.118 32.3387 85.8514 31.976C85.5954 31.6027 85.4674 31.192 85.4674 30.744C85.4674 30.04 85.7554 29.464 86.3314 29.016C86.9074 28.568 87.6914 28.2693 88.6834 28.12L91.0834 27.784V27.32C91.0834 26.2213 90.4487 25.672 89.1794 25.672C88.6887 25.672 88.294 25.7733 87.9954 25.976C87.6967 26.168 87.478 26.3973 87.3394 26.664C87.2967 26.7707 87.2487 26.8453 87.1954 26.888C87.1527 26.92 87.0887 26.936 87.0034 26.936H86.3794C86.2834 26.936 86.198 26.904 86.1234 26.84C86.0594 26.7653 86.0274 26.68 86.0274 26.584C86.0274 26.3387 86.1394 26.056 86.3634 25.736C86.598 25.4053 86.9554 25.1227 87.4354 24.888C87.9154 24.6427 88.502 24.52 89.1954 24.52C90.39 24.52 91.2434 24.7973 91.7554 25.352C92.278 25.9067 92.5394 26.6 92.5394 27.432V32.632C92.5394 32.7387 92.502 32.8293 92.4274 32.904C92.3634 32.968 92.278 33 92.1714 33H91.4674C91.3607 33 91.2754 32.968 91.2114 32.904C91.1474 32.8293 91.1154 32.7387 91.1154 32.632V31.928C90.8807 32.28 90.5394 32.5733 90.0914 32.808C89.6434 33.0427 89.0674 33.16 88.3634 33.16ZM88.6834 31.992C89.3874 31.992 89.9634 31.7627 90.4114 31.304C90.8594 30.8453 91.0834 30.1787 91.0834 29.304V28.856L89.2114 29.128C88.4434 29.2347 87.862 29.416 87.4674 29.672C87.0727 29.928 86.8754 30.248 86.8754 30.632C86.8754 31.0693 87.0514 31.4053 87.4034 31.64C87.766 31.8747 88.1927 31.992 88.6834 31.992ZM95.2403 33C95.1336 33 95.0429 32.968 94.9683 32.904C94.9043 32.8293 94.8723 32.7387 94.8723 32.632V22.008C94.8723 21.8907 94.9043 21.8 94.9683 21.736C95.0429 21.672 95.1336 21.64 95.2403 21.64H95.9443C96.0509 21.64 96.1363 21.6773 96.2003 21.752C96.2749 21.816 96.3123 21.9013 96.3123 22.008V32.632C96.3123 32.7387 96.2749 32.8293 96.2003 32.904C96.1363 32.968 96.0509 33 95.9443 33H95.2403ZM99.0996 33C98.993 33 98.9023 32.968 98.8276 32.904C98.7636 32.8293 98.7316 32.7387 98.7316 32.632V22.008C98.7316 21.8907 98.7636 21.8 98.8276 21.736C98.9023 21.672 98.993 21.64 99.0996 21.64H99.7876C99.8943 21.64 99.9796 21.6773 100.044 21.752C100.118 21.816 100.156 21.9013 100.156 22.008V27.592L103.356 24.952C103.516 24.8347 103.628 24.76 103.692 24.728C103.756 24.696 103.857 24.68 103.996 24.68H104.796C104.892 24.68 104.966 24.712 105.02 24.776C105.084 24.8293 105.116 24.9093 105.116 25.016C105.116 25.112 105.057 25.2133 104.94 25.32L101.196 28.392L105.34 32.36C105.457 32.4773 105.516 32.5787 105.516 32.664C105.516 32.76 105.484 32.84 105.42 32.904C105.366 32.968 105.292 33 105.196 33H104.412C104.252 33 104.134 32.984 104.06 32.952C103.996 32.92 103.9 32.8453 103.772 32.728L100.156 29.304V32.632C100.156 32.7387 100.118 32.8293 100.044 32.904C99.9796 32.968 99.8943 33 99.7876 33H99.0996ZM107.319 30.376C107.212 30.376 107.121 30.344 107.047 30.28C106.983 30.2053 106.951 30.1147 106.951 30.008V22.168C106.951 22.0507 106.983 21.96 107.047 21.896C107.121 21.832 107.212 21.8 107.319 21.8H108.007C108.113 21.8 108.199 21.8373 108.263 21.912C108.337 21.976 108.375 22.0613 108.375 22.168V30.008C108.375 30.1147 108.337 30.2053 108.263 30.28C108.199 30.344 108.113 30.376 108.007 30.376H107.319ZM107.175 33C107.068 33 106.977 32.968 106.903 32.904C106.839 32.8293 106.807 32.7387 106.807 32.632V31.656C106.807 31.5493 106.839 31.464 106.903 31.4C106.977 31.3253 107.068 31.288 107.175 31.288H108.135C108.241 31.288 108.332 31.3253 108.407 31.4C108.481 31.464 108.519 31.5493 108.519 31.656V32.632C108.519 32.7387 108.481 32.8293 108.407 32.904C108.332 32.968 108.241 33 108.135 33H107.175Z" fill="#EDEFF3"/>
<rect x="0.5" y="0.5" width="149" height="55" rx="3.5" stroke="url(#paint1_linear)"/>
<defs>
<linearGradient id="paint0_linear" x1="-17.8846" y1="-7" x2="165.993" y2="54.7626" gradientUnits="userSpaceOnUse">
<stop stop-color="#793599"/>
<stop offset="1" stop-color="#133A9E"/>
</linearGradient>
<linearGradient id="paint1_linear" x1="-13.5" y1="-3.55904e-06" x2="164" y2="56" gradientUnits="userSpaceOnUse">
<stop stop-color="#E3D5F2"/>
<stop offset="1" stop-color="#27399E" stop-opacity="0"/>
</linearGradient>
</defs>
</svg>
