<svg width="258" height="56" viewBox="0 0 258 56" fill="none" xmlns="http://www.w3.org/2000/svg">
<rect x="0.5" y="0.5" width="257" height="55" rx="3.5" fill="url(#paint0_linear)"/>
<path d="M41.76 33C41.6533 33 41.568 32.968 41.504 32.904C41.44 32.8293 41.408 32.7387 41.408 32.632V22.184C41.408 22.0667 41.44 21.976 41.504 21.912C41.568 21.8373 41.6533 21.8 41.76 21.8H46.128C47.2587 21.8 48.112 22.072 48.688 22.616C49.264 23.16 49.552 23.8693 49.552 24.744C49.552 25.3413 49.4133 25.8427 49.136 26.248C48.8587 26.6427 48.5333 26.9307 48.16 27.112C48.6187 27.336 49.0027 27.6827 49.312 28.152C49.6213 28.6213 49.776 29.16 49.776 29.768C49.776 30.3653 49.6373 30.9093 49.36 31.4C49.0933 31.8907 48.6933 32.28 48.16 32.568C47.6267 32.856 46.992 33 46.256 33H41.76ZM45.888 26.552C46.5813 26.552 47.1093 26.3973 47.472 26.088C47.8347 25.768 48.016 25.3253 48.016 24.76C48.016 24.2053 47.8347 23.784 47.472 23.496C47.12 23.208 46.592 23.064 45.888 23.064H42.912V26.552H45.888ZM46.048 31.736C46.7307 31.736 47.264 31.5547 47.648 31.192C48.0427 30.8187 48.24 30.344 48.24 29.768C48.24 29.1813 48.0427 28.7067 47.648 28.344C47.264 27.9813 46.7307 27.8 46.048 27.8H42.912V31.736H46.048ZM54.1759 33.16C53.6532 33.16 53.1679 33.0533 52.7199 32.84C52.2825 32.6267 51.9305 32.3387 51.6639 31.976C51.4079 31.6027 51.2799 31.192 51.2799 30.744C51.2799 30.04 51.5679 29.464 52.1439 29.016C52.7199 28.568 53.5039 28.2693 54.4959 28.12L56.8959 27.784V27.32C56.8959 26.2213 56.2612 25.672 54.9919 25.672C54.5012 25.672 54.1065 25.7733 53.8079 25.976C53.5092 26.168 53.2905 26.3973 53.1519 26.664C53.1092 26.7707 53.0612 26.8453 53.0079 26.888C52.9652 26.92 52.9012 26.936 52.8159 26.936H52.1919C52.0959 26.936 52.0105 26.904 51.9359 26.84C51.8719 26.7653 51.8399 26.68 51.8399 26.584C51.8399 26.3387 51.9519 26.056 52.1759 25.736C52.4105 25.4053 52.7679 25.1227 53.2479 24.888C53.7279 24.6427 54.3145 24.52 55.0079 24.52C56.2025 24.52 57.0559 24.7973 57.5679 25.352C58.0905 25.9067 58.3519 26.6 58.3519 27.432V32.632C58.3519 32.7387 58.3145 32.8293 58.2399 32.904C58.1759 32.968 58.0905 33 57.9839 33H57.2799C57.1732 33 57.0879 32.968 57.0239 32.904C56.9599 32.8293 56.9279 32.7387 56.9279 32.632V31.928C56.6932 32.28 56.3519 32.5733 55.9039 32.808C55.4559 33.0427 54.8799 33.16 54.1759 33.16ZM54.4959 31.992C55.1999 31.992 55.7759 31.7627 56.2239 31.304C56.6719 30.8453 56.8959 30.1787 56.8959 29.304V28.856L55.0239 29.128C54.2559 29.2347 53.6745 29.416 53.2799 29.672C52.8852 29.928 52.6879 30.248 52.6879 30.632C52.6879 31.0693 52.8639 31.4053 53.2159 31.64C53.5785 31.8747 54.0052 31.992 54.4959 31.992ZM63.9968 33.16C62.8554 33.16 61.9648 32.84 61.3248 32.2C60.6848 31.5493 60.3488 30.6427 60.3168 29.48L60.3008 28.84L60.3168 28.2C60.3488 27.0373 60.6848 26.136 61.3248 25.496C61.9648 24.8453 62.8554 24.52 63.9968 24.52C64.7648 24.52 65.4101 24.6587 65.9328 24.936C66.4661 25.2027 66.8608 25.5387 67.1168 25.944C67.3834 26.3493 67.5274 26.7547 67.5487 27.16C67.5594 27.256 67.5221 27.3413 67.4368 27.416C67.3621 27.4907 67.2768 27.528 67.1808 27.528H66.4768C66.3701 27.528 66.2901 27.5067 66.2368 27.464C66.1834 27.4107 66.1301 27.32 66.0768 27.192C65.8848 26.6693 65.6181 26.3013 65.2768 26.088C64.9461 25.864 64.5248 25.752 64.0128 25.752C63.3408 25.752 62.8074 25.96 62.4128 26.376C62.0181 26.792 61.8048 27.4267 61.7728 28.28L61.7568 28.84L61.7728 29.4C61.8048 30.2533 62.0181 30.888 62.4128 31.304C62.8074 31.72 63.3408 31.928 64.0128 31.928C64.5354 31.928 64.9621 31.8213 65.2928 31.608C65.6234 31.384 65.8848 31.0107 66.0768 30.488C66.1301 30.36 66.1834 30.2747 66.2368 30.232C66.2901 30.1787 66.3701 30.152 66.4768 30.152H67.1808C67.2768 30.152 67.3621 30.1893 67.4368 30.264C67.5221 30.3387 67.5594 30.424 67.5487 30.52C67.5274 30.9147 67.3834 31.3147 67.1168 31.72C66.8608 32.1253 66.4661 32.4667 65.9328 32.744C65.4101 33.0213 64.7648 33.16 63.9968 33.16ZM69.8496 33C69.743 33 69.6523 32.968 69.5776 32.904C69.5136 32.8293 69.4816 32.7387 69.4816 32.632V22.008C69.4816 21.8907 69.5136 21.8 69.5776 21.736C69.6523 21.672 69.743 21.64 69.8496 21.64H70.5376C70.6443 21.64 70.7296 21.6773 70.7936 21.752C70.8683 21.816 70.9056 21.9013 70.9056 22.008V27.592L74.1056 24.952C74.2656 24.8347 74.3776 24.76 74.4416 24.728C74.5056 24.696 74.607 24.68 74.7456 24.68H75.5456C75.6416 24.68 75.7163 24.712 75.7696 24.776C75.8336 24.8293 75.8656 24.9093 75.8656 25.016C75.8656 25.112 75.807 25.2133 75.6896 25.32L71.9456 28.392L76.0896 32.36C76.207 32.4773 76.2656 32.5787 76.2656 32.664C76.2656 32.76 76.2336 32.84 76.1696 32.904C76.1163 32.968 76.0416 33 75.9456 33H75.1616C75.0016 33 74.8843 32.984 74.8096 32.952C74.7456 32.92 74.6496 32.8453 74.5216 32.728L70.9056 29.304V32.632C70.9056 32.7387 70.8683 32.8293 70.7936 32.904C70.7296 32.968 70.6443 33 70.5376 33H69.8496ZM84.3063 33C82.6529 33 81.8263 32.0667 81.8263 30.2V25.912H80.5623C80.4556 25.912 80.3703 25.88 80.3063 25.816C80.2423 25.752 80.2103 25.6667 80.2103 25.56V25.048C80.2103 24.9413 80.2423 24.856 80.3063 24.792C80.3703 24.7173 80.4556 24.68 80.5623 24.68H81.8263V22.008C81.8263 21.9013 81.8583 21.816 81.9223 21.752C81.9863 21.6773 82.0716 21.64 82.1783 21.64H82.8823C82.9889 21.64 83.0743 21.6773 83.1383 21.752C83.2129 21.816 83.2503 21.9013 83.2503 22.008V24.68H85.2343C85.3409 24.68 85.4263 24.7173 85.4903 24.792C85.5649 24.856 85.6023 24.9413 85.6023 25.048V25.56C85.6023 25.6667 85.5649 25.752 85.4903 25.816C85.4263 25.88 85.3409 25.912 85.2343 25.912H83.2503V30.088C83.2503 30.632 83.3356 31.0427 83.5063 31.32C83.6876 31.5973 83.9916 31.736 84.4183 31.736H85.3943C85.5009 31.736 85.5863 31.7733 85.6503 31.848C85.7143 31.912 85.7463 31.9973 85.7463 32.104V32.632C85.7463 32.7387 85.7143 32.8293 85.6503 32.904C85.5863 32.968 85.5009 33 85.3943 33H84.3063ZM90.6854 33.16C89.512 33.16 88.6054 32.8293 87.9654 32.168C87.336 31.5067 87 30.6267 86.9574 29.528L86.9414 28.84L86.9574 28.152C87 27.0533 87.3414 26.1733 87.9814 25.512C88.632 24.8507 89.5334 24.52 90.6854 24.52C91.8374 24.52 92.7334 24.8507 93.3734 25.512C94.024 26.1733 94.3707 27.0533 94.4134 28.152C94.4347 28.3867 94.4454 28.616 94.4454 28.84C94.4454 29.064 94.4347 29.2933 94.4134 29.528C94.3707 30.6267 94.0294 31.5067 93.3894 32.168C92.76 32.8293 91.8587 33.16 90.6854 33.16ZM90.6854 31.96C91.368 31.96 91.9067 31.7467 92.3014 31.32C92.7067 30.8827 92.9254 30.2587 92.9574 29.448C92.968 29.3413 92.9734 29.1387 92.9734 28.84C92.9734 28.5413 92.968 28.3387 92.9574 28.232C92.9254 27.4213 92.7067 26.8027 92.3014 26.376C91.9067 25.9387 91.368 25.72 90.6854 25.72C90.0027 25.72 89.4587 25.9387 89.0534 26.376C88.6587 26.8027 88.4454 27.4213 88.4134 28.232L88.3974 28.84L88.4134 29.448C88.4454 30.2587 88.6587 30.8827 89.0534 31.32C89.4587 31.7467 90.0027 31.96 90.6854 31.96ZM103.251 33.16C102.515 33.16 101.891 33.0427 101.379 32.808C100.878 32.5627 100.504 32.2853 100.259 31.976C100.014 31.6667 99.8911 31.4107 99.8911 31.208C99.8911 31.1013 99.9285 31.0213 100.003 30.968C100.078 30.904 100.158 30.872 100.243 30.872H100.915C100.979 30.872 101.027 30.8827 101.059 30.904C101.102 30.9253 101.155 30.9733 101.219 31.048C101.464 31.3467 101.736 31.5813 102.035 31.752C102.344 31.9227 102.755 32.008 103.267 32.008C103.843 32.008 104.302 31.9013 104.643 31.688C104.995 31.4747 105.171 31.1653 105.171 30.76C105.171 30.4933 105.096 30.28 104.947 30.12C104.798 29.96 104.547 29.816 104.195 29.688C103.854 29.56 103.342 29.4213 102.659 29.272C101.731 29.0693 101.075 28.776 100.691 28.392C100.307 28.008 100.115 27.512 100.115 26.904C100.115 26.5093 100.232 26.1307 100.467 25.768C100.702 25.3947 101.048 25.096 101.507 24.872C101.976 24.6373 102.531 24.52 103.171 24.52C103.843 24.52 104.414 24.632 104.883 24.856C105.363 25.08 105.72 25.3413 105.955 25.64C106.2 25.9387 106.323 26.1893 106.323 26.392C106.323 26.488 106.286 26.568 106.211 26.632C106.147 26.696 106.067 26.728 105.971 26.728H105.363C105.214 26.728 105.107 26.6693 105.043 26.552C104.862 26.3493 104.707 26.1947 104.579 26.088C104.462 25.9707 104.286 25.8747 104.051 25.8C103.816 25.7147 103.523 25.672 103.171 25.672C102.648 25.672 102.248 25.784 101.971 26.008C101.694 26.2213 101.555 26.5093 101.555 26.872C101.555 27.096 101.614 27.288 101.731 27.448C101.848 27.5973 102.072 27.7413 102.403 27.88C102.734 28.008 103.224 28.1413 103.875 28.28C104.888 28.4933 105.603 28.7973 106.019 29.192C106.446 29.5867 106.659 30.0933 106.659 30.712C106.659 31.1707 106.526 31.5867 106.259 31.96C106.003 32.3333 105.614 32.6267 105.091 32.84C104.579 33.0533 103.966 33.16 103.251 33.16ZM111.824 33.16C110.736 33.16 109.867 32.824 109.216 32.152C108.565 31.4693 108.208 30.5413 108.144 29.368L108.128 28.824L108.144 28.296C108.208 27.144 108.565 26.2267 109.216 25.544C109.867 24.8613 110.736 24.52 111.824 24.52C112.997 24.52 113.904 24.8933 114.544 25.64C115.195 26.3867 115.52 27.4 115.52 28.68V28.968C115.52 29.0747 115.483 29.1653 115.408 29.24C115.344 29.304 115.259 29.336 115.152 29.336H109.6V29.48C109.632 30.1733 109.845 30.7653 110.24 31.256C110.635 31.7467 111.157 31.992 111.808 31.992C112.309 31.992 112.715 31.896 113.024 31.704C113.344 31.5013 113.584 31.2933 113.744 31.08C113.84 30.952 113.915 30.8773 113.968 30.856C114.021 30.824 114.112 30.808 114.24 30.808H114.944C115.04 30.808 115.12 30.8347 115.184 30.888C115.259 30.9413 115.296 31.0107 115.296 31.096C115.296 31.3307 115.152 31.6133 114.864 31.944C114.576 32.2747 114.165 32.5627 113.632 32.808C113.109 33.0427 112.507 33.16 111.824 33.16ZM114.064 28.248V28.2C114.064 27.4533 113.861 26.8453 113.456 26.376C113.051 25.9067 112.507 25.672 111.824 25.672C111.131 25.672 110.587 25.9067 110.192 26.376C109.797 26.8453 109.6 27.4533 109.6 28.2V28.248H114.064ZM120.762 33.16C119.674 33.16 118.804 32.824 118.154 32.152C117.503 31.4693 117.146 30.5413 117.082 29.368L117.066 28.824L117.082 28.296C117.146 27.144 117.503 26.2267 118.154 25.544C118.804 24.8613 119.674 24.52 120.762 24.52C121.935 24.52 122.842 24.8933 123.482 25.64C124.132 26.3867 124.458 27.4 124.458 28.68V28.968C124.458 29.0747 124.42 29.1653 124.346 29.24C124.282 29.304 124.196 29.336 124.09 29.336H118.538V29.48C118.57 30.1733 118.783 30.7653 119.178 31.256C119.572 31.7467 120.095 31.992 120.746 31.992C121.247 31.992 121.652 31.896 121.962 31.704C122.282 31.5013 122.522 31.2933 122.682 31.08C122.778 30.952 122.852 30.8773 122.906 30.856C122.959 30.824 123.05 30.808 123.178 30.808H123.882C123.978 30.808 124.058 30.8347 124.122 30.888C124.196 30.9413 124.234 31.0107 124.234 31.096C124.234 31.3307 124.09 31.6133 123.802 31.944C123.514 32.2747 123.103 32.5627 122.57 32.808C122.047 33.0427 121.444 33.16 120.762 33.16ZM123.002 28.248V28.2C123.002 27.4533 122.799 26.8453 122.394 26.376C121.988 25.9067 121.444 25.672 120.762 25.672C120.068 25.672 119.524 25.9067 119.13 26.376C118.735 26.8453 118.538 27.4533 118.538 28.2V28.248H123.002ZM126.643 23.112C126.536 23.112 126.446 23.08 126.371 23.016C126.307 22.9413 126.275 22.8507 126.275 22.744V21.912C126.275 21.8053 126.307 21.7147 126.371 21.64C126.446 21.5653 126.536 21.528 126.643 21.528H127.587C127.694 21.528 127.784 21.5653 127.859 21.64C127.934 21.7147 127.971 21.8053 127.971 21.912V22.744C127.971 22.8507 127.934 22.9413 127.859 23.016C127.784 23.08 127.694 23.112 127.587 23.112H126.643ZM126.771 33C126.664 33 126.574 32.968 126.499 32.904C126.435 32.8293 126.403 32.7387 126.403 32.632V25.048C126.403 24.9413 126.435 24.856 126.499 24.792C126.574 24.7173 126.664 24.68 126.771 24.68H127.475C127.582 24.68 127.667 24.7173 127.731 24.792C127.806 24.856 127.843 24.9413 127.843 25.048V32.632C127.843 32.7387 127.806 32.8293 127.731 32.904C127.667 32.968 127.582 33 127.475 33H126.771ZM130.615 33C130.508 33 130.418 32.968 130.343 32.904C130.279 32.8293 130.247 32.7387 130.247 32.632V25.048C130.247 24.9413 130.279 24.856 130.343 24.792C130.418 24.7173 130.508 24.68 130.615 24.68H131.303C131.42 24.68 131.511 24.712 131.575 24.776C131.639 24.84 131.671 24.9307 131.671 25.048V25.752C131.991 25.3573 132.359 25.0533 132.775 24.84C133.202 24.6267 133.73 24.52 134.359 24.52C135.383 24.52 136.178 24.8507 136.743 25.512C137.308 26.1627 137.591 27.0267 137.591 28.104V32.632C137.591 32.7387 137.554 32.8293 137.479 32.904C137.415 32.968 137.33 33 137.223 33H136.487C136.38 33 136.29 32.968 136.215 32.904C136.151 32.8293 136.119 32.7387 136.119 32.632V28.2C136.119 27.432 135.932 26.8347 135.559 26.408C135.186 25.9813 134.652 25.768 133.959 25.768C133.276 25.768 132.732 25.9867 132.327 26.424C131.922 26.8507 131.719 27.4427 131.719 28.2V32.632C131.719 32.7387 131.682 32.8293 131.607 32.904C131.543 32.968 131.458 33 131.351 33H130.615ZM143.279 36.52C142.394 36.52 141.684 36.3707 141.151 36.072C140.618 35.7733 140.239 35.432 140.015 35.048C139.802 34.664 139.695 34.3333 139.695 34.056C139.695 33.96 139.732 33.8747 139.807 33.8C139.882 33.736 139.967 33.704 140.063 33.704H140.767C140.863 33.704 140.943 33.7253 141.007 33.768C141.071 33.8213 141.124 33.912 141.167 34.04C141.466 34.8933 142.143 35.32 143.199 35.32C143.999 35.32 144.591 35.1493 144.975 34.808C145.359 34.4667 145.551 33.864 145.551 33V31.896C144.932 32.6853 144.068 33.08 142.959 33.08C141.828 33.08 140.98 32.7173 140.415 31.992C139.86 31.2667 139.567 30.3493 139.535 29.24L139.519 28.792L139.535 28.36C139.567 27.2613 139.86 26.3493 140.415 25.624C140.98 24.888 141.828 24.52 142.959 24.52C144.079 24.52 144.954 24.9307 145.583 25.752V25.064C145.583 24.9573 145.615 24.8667 145.679 24.792C145.754 24.7173 145.844 24.68 145.951 24.68H146.639C146.746 24.68 146.831 24.7173 146.895 24.792C146.97 24.8667 147.007 24.9573 147.007 25.064V32.824C147.007 35.288 145.764 36.52 143.279 36.52ZM143.247 31.832C143.994 31.832 144.554 31.592 144.927 31.112C145.311 30.6213 145.519 30.0347 145.551 29.352C145.562 29.256 145.567 29.0693 145.567 28.792C145.567 28.5253 145.562 28.344 145.551 28.248C145.519 27.5653 145.311 26.984 144.927 26.504C144.554 26.0133 143.994 25.768 143.247 25.768C142.479 25.768 141.919 26.0133 141.567 26.504C141.226 26.984 141.039 27.608 141.007 28.376L140.991 28.792L141.007 29.224C141.039 29.992 141.226 30.6213 141.567 31.112C141.919 31.592 142.479 31.832 143.247 31.832ZM153.724 33C153.618 33 153.527 32.968 153.452 32.904C153.388 32.8293 153.356 32.7387 153.356 32.632V25.048C153.356 24.9413 153.388 24.856 153.452 24.792C153.527 24.7173 153.618 24.68 153.724 24.68H154.396C154.503 24.68 154.588 24.7173 154.652 24.792C154.716 24.856 154.748 24.9413 154.748 25.048V25.592C155.324 24.8773 156.103 24.52 157.084 24.52C158.258 24.52 159.09 25.0107 159.58 25.992C159.836 25.544 160.199 25.1867 160.668 24.92C161.148 24.6533 161.682 24.52 162.268 24.52C163.143 24.52 163.858 24.8187 164.412 25.416C164.967 26.0133 165.244 26.8773 165.244 28.008V32.632C165.244 32.7387 165.207 32.8293 165.132 32.904C165.068 32.968 164.983 33 164.876 33H164.188C164.082 33 163.991 32.968 163.916 32.904C163.852 32.8293 163.82 32.7387 163.82 32.632V28.152C163.82 27.2987 163.644 26.6907 163.292 26.328C162.94 25.9547 162.476 25.768 161.9 25.768C161.388 25.768 160.946 25.96 160.572 26.344C160.21 26.7173 160.028 27.32 160.028 28.152V32.632C160.028 32.7387 159.991 32.8293 159.916 32.904C159.852 32.968 159.767 33 159.66 33H158.956C158.85 33 158.759 32.968 158.684 32.904C158.62 32.8293 158.588 32.7387 158.588 32.632V28.152C158.588 27.3093 158.402 26.7013 158.028 26.328C157.666 25.9547 157.212 25.768 156.668 25.768C156.156 25.768 155.714 25.9547 155.34 26.328C154.978 26.7013 154.796 27.304 154.796 28.136V32.632C154.796 32.7387 154.759 32.8293 154.684 32.904C154.62 32.968 154.535 33 154.428 33H153.724ZM168.765 36.04C168.669 36.04 168.589 36.008 168.525 35.944C168.461 35.88 168.429 35.8053 168.429 35.72C168.429 35.688 168.456 35.592 168.509 35.432L169.757 32.504L166.701 25.288C166.637 25.16 166.605 25.0693 166.605 25.016C166.616 24.92 166.653 24.84 166.717 24.776C166.781 24.712 166.856 24.68 166.941 24.68H167.677C167.848 24.68 167.976 24.7653 168.061 24.936L170.525 30.824L173.053 24.936C173.139 24.7653 173.267 24.68 173.437 24.68H174.157C174.243 24.68 174.317 24.712 174.381 24.776C174.445 24.84 174.477 24.9147 174.477 25C174.477 25.0747 174.451 25.1707 174.397 25.288L169.869 35.784C169.816 35.8693 169.757 35.9333 169.693 35.976C169.64 36.0187 169.565 36.04 169.469 36.04H168.765ZM181.424 33C181.274 33 181.162 32.968 181.088 32.904C181.013 32.84 180.954 32.7387 180.912 32.6L178.64 25.176L178.608 25.016C178.608 24.92 178.64 24.84 178.704 24.776C178.768 24.712 178.848 24.68 178.944 24.68H179.6C179.706 24.68 179.792 24.712 179.856 24.776C179.93 24.8293 179.973 24.8827 179.984 24.936L181.792 31.048L183.712 25.016C183.733 24.9307 183.781 24.856 183.856 24.792C183.93 24.7173 184.032 24.68 184.16 24.68H184.672C184.8 24.68 184.901 24.7173 184.976 24.792C185.05 24.856 185.098 24.9307 185.12 25.016L187.04 31.048L188.848 24.936C188.858 24.8827 188.896 24.8293 188.96 24.776C189.034 24.712 189.125 24.68 189.232 24.68H189.888C189.984 24.68 190.064 24.712 190.128 24.776C190.192 24.84 190.224 24.92 190.224 25.016L190.192 25.176L187.92 32.6C187.877 32.7387 187.818 32.84 187.744 32.904C187.669 32.968 187.557 33 187.408 33H186.832C186.554 33 186.373 32.8667 186.288 32.6L184.416 26.808L182.544 32.6C182.458 32.8667 182.277 33 182 33H181.424ZM195.17 33.16C193.996 33.16 193.09 32.8293 192.45 32.168C191.82 31.5067 191.484 30.6267 191.442 29.528L191.426 28.84L191.442 28.152C191.484 27.0533 191.826 26.1733 192.466 25.512C193.116 24.8507 194.018 24.52 195.17 24.52C196.322 24.52 197.218 24.8507 197.858 25.512C198.508 26.1733 198.855 27.0533 198.898 28.152C198.919 28.3867 198.93 28.616 198.93 28.84C198.93 29.064 198.919 29.2933 198.898 29.528C198.855 30.6267 198.514 31.5067 197.874 32.168C197.244 32.8293 196.343 33.16 195.17 33.16ZM195.17 31.96C195.852 31.96 196.391 31.7467 196.786 31.32C197.191 30.8827 197.41 30.2587 197.442 29.448C197.452 29.3413 197.458 29.1387 197.458 28.84C197.458 28.5413 197.452 28.3387 197.442 28.232C197.41 27.4213 197.191 26.8027 196.786 26.376C196.391 25.9387 195.852 25.72 195.17 25.72C194.487 25.72 193.943 25.9387 193.538 26.376C193.143 26.8027 192.93 27.4213 192.898 28.232L192.882 28.84L192.898 29.448C192.93 30.2587 193.143 30.8827 193.538 31.32C193.943 31.7467 194.487 31.96 195.17 31.96ZM201.318 33C201.211 33 201.121 32.968 201.046 32.904C200.982 32.8293 200.95 32.7387 200.95 32.632V25.064C200.95 24.9573 200.982 24.8667 201.046 24.792C201.121 24.7173 201.211 24.68 201.318 24.68H201.99C202.107 24.68 202.198 24.7173 202.262 24.792C202.337 24.856 202.374 24.9467 202.374 25.064V25.768C202.811 25.0427 203.553 24.68 204.598 24.68H205.222C205.339 24.68 205.43 24.712 205.494 24.776C205.558 24.84 205.59 24.9307 205.59 25.048V25.64C205.59 25.7467 205.558 25.8373 205.494 25.912C205.43 25.976 205.339 26.008 205.222 26.008H204.31C203.723 26.008 203.259 26.1787 202.918 26.52C202.587 26.8613 202.422 27.3253 202.422 27.912V32.632C202.422 32.7387 202.385 32.8293 202.31 32.904C202.235 32.968 202.145 33 202.038 33H201.318ZM207.35 33C207.243 33 207.152 32.968 207.078 32.904C207.014 32.8293 206.982 32.7387 206.982 32.632V22.008C206.982 21.8907 207.014 21.8 207.078 21.736C207.152 21.672 207.243 21.64 207.35 21.64H208.038C208.144 21.64 208.23 21.6773 208.294 21.752C208.368 21.816 208.406 21.9013 208.406 22.008V27.592L211.606 24.952C211.766 24.8347 211.878 24.76 211.942 24.728C212.006 24.696 212.107 24.68 212.246 24.68H213.046C213.142 24.68 213.216 24.712 213.27 24.776C213.334 24.8293 213.366 24.9093 213.366 25.016C213.366 25.112 213.307 25.2133 213.19 25.32L209.446 28.392L213.59 32.36C213.707 32.4773 213.766 32.5787 213.766 32.664C213.766 32.76 213.734 32.84 213.67 32.904C213.616 32.968 213.542 33 213.446 33H212.662C212.502 33 212.384 32.984 212.31 32.952C212.246 32.92 212.15 32.8453 212.022 32.728L208.406 29.304V32.632C208.406 32.7387 208.368 32.8293 208.294 32.904C208.23 32.968 208.144 33 208.038 33H207.35ZM215.569 30.376C215.462 30.376 215.371 30.344 215.297 30.28C215.233 30.2053 215.201 30.1147 215.201 30.008V22.168C215.201 22.0507 215.233 21.96 215.297 21.896C215.371 21.832 215.462 21.8 215.569 21.8H216.257C216.363 21.8 216.449 21.8373 216.513 21.912C216.587 21.976 216.625 22.0613 216.625 22.168V30.008C216.625 30.1147 216.587 30.2053 216.513 30.28C216.449 30.344 216.363 30.376 216.257 30.376H215.569ZM215.425 33C215.318 33 215.227 32.968 215.153 32.904C215.089 32.8293 215.057 32.7387 215.057 32.632V31.656C215.057 31.5493 215.089 31.464 215.153 31.4C215.227 31.3253 215.318 31.288 215.425 31.288H216.385C216.491 31.288 216.582 31.3253 216.657 31.4C216.731 31.464 216.769 31.5493 216.769 31.656V32.632C216.769 32.7387 216.731 32.8293 216.657 32.904C216.582 32.968 216.491 33 216.385 33H215.425Z" fill="#EDEFF3"/>
<rect x="0.5" y="0.5" width="257" height="55" rx="3.5" stroke="url(#paint1_linear)"/>
<defs>
<linearGradient id="paint0_linear" x1="-30.7615" y1="-7" x2="233.114" y2="145.45" gradientUnits="userSpaceOnUse">
<stop stop-color="#793599"/>
<stop offset="1" stop-color="#133A9E"/>
</linearGradient>
<linearGradient id="paint1_linear" x1="-23.22" y1="-3.55904e-06" x2="236.106" y2="140.722" gradientUnits="userSpaceOnUse">
<stop stop-color="#E3D5F2"/>
<stop offset="1" stop-color="#27399E" stop-opacity="0"/>
</linearGradient>
</defs>
</svg>
