<svg width="40" height="40" viewBox="0 0 40 40" fill="none" xmlns="http://www.w3.org/2000/svg">
<g clip-path="url(#clip0)">
<path d="M16.4563 26.3009C17.2864 25.8834 17.9139 25.4183 18.344 24.9158C19.109 24.0107 19.4866 22.8106 19.4866 21.323C19.4866 19.8754 19.109 18.6378 18.354 17.6002C17.0939 15.9101 14.9612 15.045 11.946 15H0V39.3844H11.1384C12.3935 39.3844 13.5561 39.2769 14.6312 39.0569C15.7063 38.8344 16.6363 38.4269 17.4239 37.8318C18.1239 37.3143 18.709 36.6717 19.174 35.9142C19.9091 34.7691 20.2766 33.4715 20.2766 32.0264C20.2766 30.6262 19.9541 29.4336 19.314 28.4536C18.6665 27.4735 17.7164 26.7559 16.4563 26.3009ZM4.92789 19.2353H10.3083C11.4909 19.2353 12.466 19.3628 13.2311 19.6154C14.1161 19.9829 14.5587 20.7305 14.5587 21.8705C14.5587 22.8931 14.2211 23.6082 13.5536 24.0107C12.881 24.4132 12.0085 24.6158 10.9384 24.6158H4.92789V19.2353ZM13.4361 34.7241C12.841 35.0116 12.0035 35.1541 10.9309 35.1541H4.92789V28.6511H11.0134C12.0735 28.6586 12.8985 28.7986 13.4886 29.0611C14.5387 29.5362 15.0612 30.4062 15.0612 31.6788C15.0612 33.1789 14.5212 34.189 13.4361 34.7241Z" fill="#EDEFF3"/>
<path d="M36.1554 16.1377H25.562V19.1729H36.1554V16.1377Z" fill="#EDEFF3"/>
<path d="M39.8356 28.1166C39.6156 26.704 39.1306 25.4614 38.3755 24.3888C37.5479 23.1737 36.4978 22.2836 35.2202 21.7211C33.9476 21.156 32.515 20.8735 30.9199 20.876C28.2422 20.876 26.067 21.7136 24.3844 23.3762C22.7068 25.0438 21.8667 27.4415 21.8667 30.5668C21.8667 33.8995 22.7943 36.3072 24.6594 37.7848C26.5171 39.2649 28.6622 40.0025 31.0974 40.0025C34.0452 40.0025 36.3378 39.1249 37.9755 37.3748C39.023 36.2697 39.6156 35.1821 39.7456 34.1145H34.8652C34.5827 34.6421 34.2552 35.0546 33.8801 35.3546C33.2001 35.9047 32.315 36.1797 31.2299 36.1797C30.1974 36.1797 29.3223 35.9522 28.5922 35.4996C27.3871 34.7746 26.7571 33.5045 26.6771 31.6968H39.9956C40.0156 30.1392 39.9656 28.9416 39.8356 28.1166ZM26.7971 28.5841C26.9721 27.4115 27.3971 26.4814 28.0722 25.7939C28.7472 25.1088 29.7023 24.7638 30.9249 24.7613C32.0525 24.7613 32.9951 25.0838 33.7626 25.7314C34.5202 26.3839 34.9477 27.3315 35.0352 28.5841H26.7971Z" fill="#EDEFF3"/>
</g>
<defs>
<clipPath id="clip0">
<rect width="40" height="40" fill="white"/>
</clipPath>
</defs>
</svg>
