<svg width="32" height="32" viewBox="0 0 32 32" fill="none" xmlns="http://www.w3.org/2000/svg">
<g clip-path="url(#clip0)">
<path d="M29.4467 9.97733L32 7.53467V7H23.1547L16.8507 22.6907L9.67867 7H0.404V7.53467L3.38667 11.1253C3.67733 11.3907 3.82933 11.7787 3.79067 12.1693V26.28C3.88267 26.788 3.71733 27.3107 3.36 27.68L0 31.752V32.28H9.52667V31.7453L6.16667 27.68C5.80267 27.3093 5.63067 26.796 5.704 26.28V14.0747L14.0667 32.2867H15.0387L22.2293 14.0747V28.5827C22.2293 28.9653 22.2293 29.044 21.9787 29.2947L19.392 31.7973V32.3333H31.9413V31.7987L29.448 29.3573C29.2293 29.192 29.116 28.9147 29.1627 28.6453V10.6893C29.116 10.4187 29.228 10.1413 29.4467 9.97733Z" fill="#EDEFF3"/>
</g>
<defs>
<clipPath id="clip0">
<rect width="32" height="32" fill="white"/>
</clipPath>
</defs>
</svg>
