<svg width="250" height="56" viewBox="0 0 250 56" fill="none" xmlns="http://www.w3.org/2000/svg">
<rect x="0.5" y="0.5" width="249" height="55" rx="3.5" fill="url(#paint0_linear)"/>
<path d="M44.976 33.16C44.1013 33.16 43.3387 33.0213 42.688 32.744C42.048 32.4667 41.5573 32.104 41.216 31.656C40.8853 31.1973 40.7093 30.7067 40.688 30.184C40.688 30.0987 40.72 30.024 40.784 29.96C40.848 29.896 40.928 29.864 41.024 29.864H41.808C42 29.864 42.1333 29.9707 42.208 30.184C42.304 30.632 42.576 31.0213 43.024 31.352C43.4827 31.672 44.1333 31.832 44.976 31.832C45.8827 31.832 46.56 31.672 47.008 31.352C47.456 31.032 47.68 30.5893 47.68 30.024C47.68 29.6613 47.568 29.3627 47.344 29.128C47.1307 28.8933 46.8053 28.6907 46.368 28.52C45.9413 28.3387 45.296 28.12 44.432 27.864C43.6107 27.6293 42.9547 27.3787 42.464 27.112C41.984 26.8453 41.6213 26.52 41.376 26.136C41.1307 25.7413 41.008 25.2453 41.008 24.648C41.008 24.072 41.1627 23.56 41.472 23.112C41.7813 22.6533 42.2293 22.296 42.816 22.04C43.4027 21.7733 44.096 21.64 44.896 21.64C45.728 21.64 46.4373 21.7893 47.024 22.088C47.6213 22.376 48.0747 22.744 48.384 23.192C48.6933 23.6293 48.8587 24.072 48.88 24.52C48.88 24.616 48.848 24.696 48.784 24.76C48.72 24.824 48.64 24.856 48.544 24.856H47.744C47.6587 24.856 47.5787 24.8293 47.504 24.776C47.4293 24.7227 47.376 24.6427 47.344 24.536C47.28 24.0773 47.024 23.6987 46.576 23.4C46.128 23.1013 45.568 22.952 44.896 22.952C44.1707 22.952 43.5947 23.096 43.168 23.384C42.7413 23.6613 42.528 24.0773 42.528 24.632C42.528 25.0053 42.624 25.3093 42.816 25.544C43.0187 25.7787 43.3227 25.9867 43.728 26.168C44.144 26.3493 44.7467 26.5573 45.536 26.792C46.4427 27.048 47.152 27.304 47.664 27.56C48.1867 27.816 48.576 28.136 48.832 28.52C49.088 28.8933 49.216 29.3787 49.216 29.976C49.216 30.9787 48.832 31.7627 48.064 32.328C47.3067 32.8827 46.2773 33.16 44.976 33.16ZM54.4179 33.16C53.3299 33.16 52.4605 32.824 51.8099 32.152C51.1592 31.4693 50.8019 30.5413 50.7379 29.368L50.7219 28.824L50.7379 28.296C50.8019 27.144 51.1592 26.2267 51.8099 25.544C52.4605 24.8613 53.3299 24.52 54.4179 24.52C55.5912 24.52 56.4979 24.8933 57.1379 25.64C57.7885 26.3867 58.1139 27.4 58.1139 28.68V28.968C58.1139 29.0747 58.0765 29.1653 58.0019 29.24C57.9379 29.304 57.8525 29.336 57.7459 29.336H52.1939V29.48C52.2259 30.1733 52.4392 30.7653 52.8339 31.256C53.2285 31.7467 53.7512 31.992 54.4019 31.992C54.9032 31.992 55.3085 31.896 55.6179 31.704C55.9379 31.5013 56.1779 31.2933 56.3379 31.08C56.4339 30.952 56.5085 30.8773 56.5619 30.856C56.6152 30.824 56.7059 30.808 56.8339 30.808H57.5379C57.6339 30.808 57.7139 30.8347 57.7779 30.888C57.8525 30.9413 57.8899 31.0107 57.8899 31.096C57.8899 31.3307 57.7459 31.6133 57.4579 31.944C57.1699 32.2747 56.7592 32.5627 56.2259 32.808C55.7032 33.0427 55.1005 33.16 54.4179 33.16ZM56.6579 28.248V28.2C56.6579 27.4533 56.4552 26.8453 56.0499 26.376C55.6445 25.9067 55.1005 25.672 54.4179 25.672C53.7245 25.672 53.1805 25.9067 52.7859 26.376C52.3912 26.8453 52.1939 27.4533 52.1939 28.2V28.248H56.6579ZM60.4274 33C60.3207 33 60.23 32.968 60.1554 32.904C60.0914 32.8293 60.0594 32.7387 60.0594 32.632V25.048C60.0594 24.9413 60.0914 24.856 60.1554 24.792C60.23 24.7173 60.3207 24.68 60.4274 24.68H61.1154C61.2327 24.68 61.3234 24.712 61.3874 24.776C61.4514 24.84 61.4834 24.9307 61.4834 25.048V25.752C61.8034 25.3573 62.1714 25.0533 62.5874 24.84C63.014 24.6267 63.542 24.52 64.1714 24.52C65.1954 24.52 65.99 24.8507 66.5554 25.512C67.1207 26.1627 67.4034 27.0267 67.4034 28.104V32.632C67.4034 32.7387 67.366 32.8293 67.2914 32.904C67.2274 32.968 67.142 33 67.0354 33H66.2994C66.1927 33 66.102 32.968 66.0274 32.904C65.9634 32.8293 65.9314 32.7387 65.9314 32.632V28.2C65.9314 27.432 65.7447 26.8347 65.3714 26.408C64.998 25.9813 64.4647 25.768 63.7714 25.768C63.0887 25.768 62.5447 25.9867 62.1394 26.424C61.734 26.8507 61.5314 27.4427 61.5314 28.2V32.632C61.5314 32.7387 61.494 32.8293 61.4194 32.904C61.3554 32.968 61.27 33 61.1634 33H60.4274ZM72.7556 33.16C71.6356 33.16 70.793 32.7973 70.2276 32.072C69.673 31.3467 69.3743 30.4293 69.3316 29.32L69.3156 28.84L69.3316 28.36C69.3743 27.2613 69.6783 26.3493 70.2436 25.624C70.809 24.888 71.6463 24.52 72.7556 24.52C73.865 24.52 74.729 24.9147 75.3476 25.704V22.008C75.3476 21.9013 75.3796 21.816 75.4436 21.752C75.5183 21.6773 75.609 21.64 75.7156 21.64H76.4356C76.5423 21.64 76.6276 21.6773 76.6916 21.752C76.7663 21.816 76.8036 21.9013 76.8036 22.008V32.632C76.8036 32.7387 76.7663 32.8293 76.6916 32.904C76.6276 32.968 76.5423 33 76.4356 33H75.7476C75.641 33 75.5556 32.968 75.4916 32.904C75.4276 32.8293 75.3956 32.7387 75.3956 32.632V31.944C74.7876 32.7547 73.9076 33.16 72.7556 33.16ZM73.0596 31.912C73.8063 31.912 74.3663 31.6667 74.7396 31.176C75.113 30.6747 75.3156 30.0827 75.3476 29.4C75.3583 29.2827 75.3636 29.08 75.3636 28.792C75.3636 28.4933 75.3583 28.2853 75.3476 28.168C75.3263 27.5173 75.1183 26.9573 74.7236 26.488C74.3396 26.008 73.785 25.768 73.0596 25.768C72.2916 25.768 71.7316 26.008 71.3796 26.488C71.0276 26.968 70.8356 27.5973 70.8036 28.376L70.7876 28.84C70.7876 30.888 71.545 31.912 73.0596 31.912ZM84.1716 36.04C84.0756 36.04 83.9956 36.008 83.9316 35.944C83.8676 35.88 83.8356 35.8053 83.8356 35.72C83.8356 35.688 83.8623 35.592 83.9156 35.432L85.1636 32.504L82.1076 25.288C82.0436 25.16 82.0116 25.0693 82.0116 25.016C82.0223 24.92 82.0596 24.84 82.1236 24.776C82.1876 24.712 82.2623 24.68 82.3476 24.68H83.0836C83.2543 24.68 83.3823 24.7653 83.4676 24.936L85.9316 30.824L88.4596 24.936C88.545 24.7653 88.673 24.68 88.8436 24.68H89.5636C89.649 24.68 89.7236 24.712 89.7876 24.776C89.8516 24.84 89.8836 24.9147 89.8836 25C89.8836 25.0747 89.857 25.1707 89.8036 25.288L85.2756 35.784C85.2223 35.8693 85.1636 35.9333 85.0996 35.976C85.0463 36.0187 84.9716 36.04 84.8756 36.04H84.1716ZM94.5916 33.16C93.4183 33.16 92.5116 32.8293 91.8716 32.168C91.2423 31.5067 90.9063 30.6267 90.8636 29.528L90.8476 28.84L90.8636 28.152C90.9063 27.0533 91.2476 26.1733 91.8876 25.512C92.5383 24.8507 93.4396 24.52 94.5916 24.52C95.7436 24.52 96.6396 24.8507 97.2796 25.512C97.9303 26.1733 98.277 27.0533 98.3196 28.152C98.341 28.3867 98.3516 28.616 98.3516 28.84C98.3516 29.064 98.341 29.2933 98.3196 29.528C98.277 30.6267 97.9356 31.5067 97.2956 32.168C96.6663 32.8293 95.765 33.16 94.5916 33.16ZM94.5916 31.96C95.2743 31.96 95.813 31.7467 96.2076 31.32C96.613 30.8827 96.8316 30.2587 96.8636 29.448C96.8743 29.3413 96.8796 29.1387 96.8796 28.84C96.8796 28.5413 96.8743 28.3387 96.8636 28.232C96.8316 27.4213 96.613 26.8027 96.2076 26.376C95.813 25.9387 95.2743 25.72 94.5916 25.72C93.909 25.72 93.365 25.9387 92.9596 26.376C92.565 26.8027 92.3516 27.4213 92.3196 28.232L92.3036 28.84L92.3196 29.448C92.3516 30.2587 92.565 30.8827 92.9596 31.32C93.365 31.7467 93.909 31.96 94.5916 31.96ZM103.476 33.16C102.463 33.16 101.679 32.8347 101.124 32.184C100.569 31.5227 100.292 30.648 100.292 29.56V25.048C100.292 24.9413 100.324 24.856 100.388 24.792C100.463 24.7173 100.553 24.68 100.66 24.68H101.396C101.503 24.68 101.588 24.7173 101.652 24.792C101.727 24.856 101.764 24.9413 101.764 25.048V29.48C101.764 31.1013 102.468 31.912 103.876 31.912C104.559 31.912 105.097 31.6987 105.492 31.272C105.897 30.8347 106.1 30.2373 106.1 29.48V25.048C106.1 24.9413 106.132 24.856 106.196 24.792C106.271 24.7173 106.361 24.68 106.468 24.68H107.204C107.311 24.68 107.396 24.7173 107.46 24.792C107.535 24.856 107.572 24.9413 107.572 25.048V32.632C107.572 32.7387 107.535 32.8293 107.46 32.904C107.396 32.968 107.311 33 107.204 33H106.516C106.409 33 106.319 32.968 106.244 32.904C106.18 32.8293 106.148 32.7387 106.148 32.632V31.912C105.839 32.328 105.476 32.6427 105.06 32.856C104.644 33.0587 104.116 33.16 103.476 33.16ZM110.334 33C110.227 33 110.136 32.968 110.062 32.904C109.998 32.8293 109.966 32.7387 109.966 32.632V25.064C109.966 24.9573 109.998 24.8667 110.062 24.792C110.136 24.7173 110.227 24.68 110.334 24.68H111.006C111.123 24.68 111.214 24.7173 111.278 24.792C111.352 24.856 111.39 24.9467 111.39 25.064V25.768C111.827 25.0427 112.568 24.68 113.614 24.68H114.238C114.355 24.68 114.446 24.712 114.51 24.776C114.574 24.84 114.606 24.9307 114.606 25.048V25.64C114.606 25.7467 114.574 25.8373 114.51 25.912C114.446 25.976 114.355 26.008 114.238 26.008H113.326C112.739 26.008 112.275 26.1787 111.934 26.52C111.603 26.8613 111.438 27.3253 111.438 27.912V32.632C111.438 32.7387 111.4 32.8293 111.326 32.904C111.251 32.968 111.16 33 111.054 33H110.334ZM119.912 33C119.805 33 119.714 32.968 119.64 32.904C119.576 32.8293 119.544 32.7387 119.544 32.632V25.064C119.544 24.9573 119.576 24.8667 119.64 24.792C119.714 24.7173 119.805 24.68 119.912 24.68H120.584C120.701 24.68 120.792 24.7173 120.856 24.792C120.93 24.856 120.968 24.9467 120.968 25.064V25.768C121.405 25.0427 122.146 24.68 123.192 24.68H123.816C123.933 24.68 124.024 24.712 124.088 24.776C124.152 24.84 124.184 24.9307 124.184 25.048V25.64C124.184 25.7467 124.152 25.8373 124.088 25.912C124.024 25.976 123.933 26.008 123.816 26.008H122.904C122.317 26.008 121.853 26.1787 121.512 26.52C121.181 26.8613 121.016 27.3253 121.016 27.912V32.632C121.016 32.7387 120.978 32.8293 120.904 32.904C120.829 32.968 120.738 33 120.632 33H119.912ZM128.699 33.16C127.611 33.16 126.742 32.824 126.091 32.152C125.44 31.4693 125.083 30.5413 125.019 29.368L125.003 28.824L125.019 28.296C125.083 27.144 125.44 26.2267 126.091 25.544C126.742 24.8613 127.611 24.52 128.699 24.52C129.872 24.52 130.779 24.8933 131.419 25.64C132.07 26.3867 132.395 27.4 132.395 28.68V28.968C132.395 29.0747 132.358 29.1653 132.283 29.24C132.219 29.304 132.134 29.336 132.027 29.336H126.475V29.48C126.507 30.1733 126.72 30.7653 127.115 31.256C127.51 31.7467 128.032 31.992 128.683 31.992C129.184 31.992 129.59 31.896 129.899 31.704C130.219 31.5013 130.459 31.2933 130.619 31.08C130.715 30.952 130.79 30.8773 130.843 30.856C130.896 30.824 130.987 30.808 131.115 30.808H131.819C131.915 30.808 131.995 30.8347 132.059 30.888C132.134 30.9413 132.171 31.0107 132.171 31.096C132.171 31.3307 132.027 31.6133 131.739 31.944C131.451 32.2747 131.04 32.5627 130.507 32.808C129.984 33.0427 129.382 33.16 128.699 33.16ZM130.939 28.248V28.2C130.939 27.4533 130.736 26.8453 130.331 26.376C129.926 25.9067 129.382 25.672 128.699 25.672C128.006 25.672 127.462 25.9067 127.067 26.376C126.672 26.8453 126.475 27.4533 126.475 28.2V28.248H130.939ZM140.357 36.04C140.25 36.04 140.159 36.008 140.085 35.944C140.021 35.88 139.989 35.7893 139.989 35.672V31.944C139.381 32.7547 138.517 33.16 137.397 33.16C136.277 33.16 135.434 32.8027 134.869 32.088C134.303 31.3733 134.005 30.472 133.973 29.384L133.957 28.84L133.973 28.296C134.015 27.1973 134.314 26.296 134.869 25.592C135.434 24.8773 136.277 24.52 137.397 24.52C138.549 24.52 139.423 24.9307 140.021 25.752V25.048C140.021 24.9413 140.053 24.856 140.117 24.792C140.191 24.7173 140.282 24.68 140.389 24.68H141.077C141.183 24.68 141.269 24.7173 141.333 24.792C141.407 24.856 141.445 24.9413 141.445 25.048V35.672C141.445 35.7787 141.407 35.864 141.333 35.928C141.269 36.0027 141.183 36.04 141.077 36.04H140.357ZM137.701 31.912C138.426 31.912 138.981 31.6773 139.365 31.208C139.759 30.728 139.967 30.1627 139.989 29.512C139.999 29.3947 140.005 29.1867 140.005 28.888C140.005 28.5893 139.999 28.3813 139.989 28.264C139.957 27.5813 139.754 26.9947 139.381 26.504C139.007 26.0133 138.447 25.768 137.701 25.768C136.933 25.768 136.373 26.008 136.021 26.488C135.669 26.968 135.477 27.5973 135.445 28.376L135.429 28.84C135.429 30.888 136.186 31.912 137.701 31.912ZM146.945 33.16C145.931 33.16 145.147 32.8347 144.593 32.184C144.038 31.5227 143.761 30.648 143.761 29.56V25.048C143.761 24.9413 143.793 24.856 143.857 24.792C143.931 24.7173 144.022 24.68 144.129 24.68H144.865C144.971 24.68 145.057 24.7173 145.121 24.792C145.195 24.856 145.233 24.9413 145.233 25.048V29.48C145.233 31.1013 145.937 31.912 147.345 31.912C148.027 31.912 148.566 31.6987 148.961 31.272C149.366 30.8347 149.569 30.2373 149.569 29.48V25.048C149.569 24.9413 149.601 24.856 149.665 24.792C149.739 24.7173 149.83 24.68 149.937 24.68H150.673C150.779 24.68 150.865 24.7173 150.929 24.792C151.003 24.856 151.041 24.9413 151.041 25.048V32.632C151.041 32.7387 151.003 32.8293 150.929 32.904C150.865 32.968 150.779 33 150.673 33H149.985C149.878 33 149.787 32.968 149.713 32.904C149.649 32.8293 149.617 32.7387 149.617 32.632V31.912C149.307 32.328 148.945 32.6427 148.529 32.856C148.113 33.0587 147.585 33.16 146.945 33.16ZM153.674 23.112C153.568 23.112 153.477 23.08 153.402 23.016C153.338 22.9413 153.306 22.8507 153.306 22.744V21.912C153.306 21.8053 153.338 21.7147 153.402 21.64C153.477 21.5653 153.568 21.528 153.674 21.528H154.618C154.725 21.528 154.816 21.5653 154.89 21.64C154.965 21.7147 155.002 21.8053 155.002 21.912V22.744C155.002 22.8507 154.965 22.9413 154.89 23.016C154.816 23.08 154.725 23.112 154.618 23.112H153.674ZM153.802 33C153.696 33 153.605 32.968 153.53 32.904C153.466 32.8293 153.434 32.7387 153.434 32.632V25.048C153.434 24.9413 153.466 24.856 153.53 24.792C153.605 24.7173 153.696 24.68 153.802 24.68H154.506C154.613 24.68 154.698 24.7173 154.762 24.792C154.837 24.856 154.874 24.9413 154.874 25.048V32.632C154.874 32.7387 154.837 32.8293 154.762 32.904C154.698 32.968 154.613 33 154.506 33H153.802ZM157.646 33C157.539 33 157.449 32.968 157.374 32.904C157.31 32.8293 157.278 32.7387 157.278 32.632V25.064C157.278 24.9573 157.31 24.8667 157.374 24.792C157.449 24.7173 157.539 24.68 157.646 24.68H158.318C158.435 24.68 158.526 24.7173 158.59 24.792C158.665 24.856 158.702 24.9467 158.702 25.064V25.768C159.139 25.0427 159.881 24.68 160.926 24.68H161.55C161.667 24.68 161.758 24.712 161.822 24.776C161.886 24.84 161.918 24.9307 161.918 25.048V25.64C161.918 25.7467 161.886 25.8373 161.822 25.912C161.758 25.976 161.667 26.008 161.55 26.008H160.638C160.051 26.008 159.587 26.1787 159.246 26.52C158.915 26.8613 158.75 27.3253 158.75 27.912V32.632C158.75 32.7387 158.713 32.8293 158.638 32.904C158.563 32.968 158.473 33 158.366 33H157.646ZM166.434 33.16C165.346 33.16 164.476 32.824 163.826 32.152C163.175 31.4693 162.818 30.5413 162.754 29.368L162.738 28.824L162.754 28.296C162.818 27.144 163.175 26.2267 163.826 25.544C164.476 24.8613 165.346 24.52 166.434 24.52C167.607 24.52 168.514 24.8933 169.154 25.64C169.804 26.3867 170.13 27.4 170.13 28.68V28.968C170.13 29.0747 170.092 29.1653 170.017 29.24C169.954 29.304 169.868 29.336 169.762 29.336H164.21V29.48C164.242 30.1733 164.455 30.7653 164.85 31.256C165.244 31.7467 165.767 31.992 166.418 31.992C166.919 31.992 167.324 31.896 167.634 31.704C167.954 31.5013 168.194 31.2933 168.354 31.08C168.45 30.952 168.524 30.8773 168.578 30.856C168.631 30.824 168.722 30.808 168.85 30.808H169.554C169.65 30.808 169.73 30.8347 169.794 30.888C169.868 30.9413 169.906 31.0107 169.906 31.096C169.906 31.3307 169.762 31.6133 169.474 31.944C169.186 32.2747 168.775 32.5627 168.242 32.808C167.719 33.0427 167.116 33.16 166.434 33.16ZM168.674 28.248V28.2C168.674 27.4533 168.471 26.8453 168.066 26.376C167.66 25.9067 167.116 25.672 166.434 25.672C165.74 25.672 165.196 25.9067 164.802 26.376C164.407 26.8453 164.21 27.4533 164.21 28.2V28.248H168.674ZM172.443 33C172.336 33 172.246 32.968 172.171 32.904C172.107 32.8293 172.075 32.7387 172.075 32.632V25.048C172.075 24.9413 172.107 24.856 172.171 24.792C172.246 24.7173 172.336 24.68 172.443 24.68H173.115C173.222 24.68 173.307 24.7173 173.371 24.792C173.435 24.856 173.467 24.9413 173.467 25.048V25.592C174.043 24.8773 174.822 24.52 175.803 24.52C176.976 24.52 177.808 25.0107 178.299 25.992C178.555 25.544 178.918 25.1867 179.387 24.92C179.867 24.6533 180.4 24.52 180.987 24.52C181.862 24.52 182.576 24.8187 183.131 25.416C183.686 26.0133 183.963 26.8773 183.963 28.008V32.632C183.963 32.7387 183.926 32.8293 183.851 32.904C183.787 32.968 183.702 33 183.595 33H182.907C182.8 33 182.71 32.968 182.635 32.904C182.571 32.8293 182.539 32.7387 182.539 32.632V28.152C182.539 27.2987 182.363 26.6907 182.011 26.328C181.659 25.9547 181.195 25.768 180.619 25.768C180.107 25.768 179.664 25.96 179.291 26.344C178.928 26.7173 178.747 27.32 178.747 28.152V32.632C178.747 32.7387 178.71 32.8293 178.635 32.904C178.571 32.968 178.486 33 178.379 33H177.675C177.568 33 177.478 32.968 177.403 32.904C177.339 32.8293 177.307 32.7387 177.307 32.632V28.152C177.307 27.3093 177.12 26.7013 176.747 26.328C176.384 25.9547 175.931 25.768 175.387 25.768C174.875 25.768 174.432 25.9547 174.059 26.328C173.696 26.7013 173.515 27.304 173.515 28.136V32.632C173.515 32.7387 173.478 32.8293 173.403 32.904C173.339 32.968 173.254 33 173.147 33H172.443ZM189.574 33.16C188.486 33.16 187.617 32.824 186.966 32.152C186.315 31.4693 185.958 30.5413 185.894 29.368L185.878 28.824L185.894 28.296C185.958 27.144 186.315 26.2267 186.966 25.544C187.617 24.8613 188.486 24.52 189.574 24.52C190.747 24.52 191.654 24.8933 192.294 25.64C192.945 26.3867 193.27 27.4 193.27 28.68V28.968C193.27 29.0747 193.233 29.1653 193.158 29.24C193.094 29.304 193.009 29.336 192.902 29.336H187.35V29.48C187.382 30.1733 187.595 30.7653 187.99 31.256C188.385 31.7467 188.907 31.992 189.558 31.992C190.059 31.992 190.465 31.896 190.774 31.704C191.094 31.5013 191.334 31.2933 191.494 31.08C191.59 30.952 191.665 30.8773 191.718 30.856C191.771 30.824 191.862 30.808 191.99 30.808H192.694C192.79 30.808 192.87 30.8347 192.934 30.888C193.009 30.9413 193.046 31.0107 193.046 31.096C193.046 31.3307 192.902 31.6133 192.614 31.944C192.326 32.2747 191.915 32.5627 191.382 32.808C190.859 33.0427 190.257 33.16 189.574 33.16ZM191.814 28.248V28.2C191.814 27.4533 191.611 26.8453 191.206 26.376C190.801 25.9067 190.257 25.672 189.574 25.672C188.881 25.672 188.337 25.9067 187.942 26.376C187.547 26.8453 187.35 27.4533 187.35 28.2V28.248H191.814ZM195.584 33C195.477 33 195.386 32.968 195.312 32.904C195.248 32.8293 195.216 32.7387 195.216 32.632V25.048C195.216 24.9413 195.248 24.856 195.312 24.792C195.386 24.7173 195.477 24.68 195.584 24.68H196.272C196.389 24.68 196.48 24.712 196.544 24.776C196.608 24.84 196.64 24.9307 196.64 25.048V25.752C196.96 25.3573 197.328 25.0533 197.744 24.84C198.17 24.6267 198.698 24.52 199.328 24.52C200.352 24.52 201.146 24.8507 201.712 25.512C202.277 26.1627 202.56 27.0267 202.56 28.104V32.632C202.56 32.7387 202.522 32.8293 202.448 32.904C202.384 32.968 202.298 33 202.192 33H201.456C201.349 33 201.258 32.968 201.184 32.904C201.12 32.8293 201.088 32.7387 201.088 32.632V28.2C201.088 27.432 200.901 26.8347 200.528 26.408C200.154 25.9813 199.621 25.768 198.928 25.768C198.245 25.768 197.701 25.9867 197.296 26.424C196.89 26.8507 196.688 27.4427 196.688 28.2V32.632C196.688 32.7387 196.65 32.8293 196.576 32.904C196.512 32.968 196.426 33 196.32 33H195.584ZM207.963 33C206.309 33 205.483 32.0667 205.483 30.2V25.912H204.219C204.112 25.912 204.027 25.88 203.963 25.816C203.899 25.752 203.867 25.6667 203.867 25.56V25.048C203.867 24.9413 203.899 24.856 203.963 24.792C204.027 24.7173 204.112 24.68 204.219 24.68H205.483V22.008C205.483 21.9013 205.515 21.816 205.579 21.752C205.643 21.6773 205.728 21.64 205.835 21.64H206.539C206.645 21.64 206.731 21.6773 206.795 21.752C206.869 21.816 206.907 21.9013 206.907 22.008V24.68H208.891C208.997 24.68 209.083 24.7173 209.147 24.792C209.221 24.856 209.259 24.9413 209.259 25.048V25.56C209.259 25.6667 209.221 25.752 209.147 25.816C209.083 25.88 208.997 25.912 208.891 25.912H206.907V30.088C206.907 30.632 206.992 31.0427 207.163 31.32C207.344 31.5973 207.648 31.736 208.075 31.736H209.051C209.157 31.736 209.243 31.7733 209.307 31.848C209.371 31.912 209.403 31.9973 209.403 32.104V32.632C209.403 32.7387 209.371 32.8293 209.307 32.904C209.243 32.968 209.157 33 209.051 33H207.963Z" fill="#EDEFF3"/>
<rect x="0.5" y="0.5" width="249" height="55" rx="3.5" stroke="url(#paint1_linear)"/>
<defs>
<linearGradient id="paint0_linear" x1="-29.8077" y1="-7" x2="229.853" y2="138.363" gradientUnits="userSpaceOnUse">
<stop stop-color="#793599"/>
<stop offset="1" stop-color="#133A9E"/>
</linearGradient>
<linearGradient id="paint1_linear" x1="-22.5" y1="-3.55904e-06" x2="232.324" y2="133.992" gradientUnits="userSpaceOnUse">
<stop stop-color="#E3D5F2"/>
<stop offset="1" stop-color="#27399E" stop-opacity="0"/>
</linearGradient>
</defs>
</svg>
