<svg width="32" height="32" viewBox="0 0 32 32" fill="none" xmlns="http://www.w3.org/2000/svg">
<g clip-path="url(#clip0)">
<path d="M28.712 12.484C30.0133 11.56 31.108 10.4067 32 9.07867V9.07733C30.8093 9.59867 29.5427 9.94533 28.22 10.1133C29.58 9.30133 30.6187 8.02533 31.1067 6.488C29.8387 7.244 28.4387 7.77733 26.9467 8.076C25.7427 6.79333 24.0267 6 22.1547 6C18.5227 6 15.5987 8.948 15.5987 12.5613C15.5987 13.0813 15.6427 13.5813 15.7507 14.0573C10.2973 13.7907 5.47067 11.1773 2.228 7.19467C1.66267 8.17733 1.32933 9.30133 1.32933 10.5107C1.32933 12.7827 2.49867 14.796 4.244 15.9627C3.18933 15.9427 2.156 15.636 1.28 15.1547V15.2267C1.28 18.4147 3.55333 21.0627 6.536 21.6733C6.00133 21.82 5.42 21.8893 4.816 21.8893C4.396 21.8893 3.972 21.8653 3.57467 21.7773C4.424 24.3747 6.83733 26.2853 9.704 26.348C7.472 28.0933 4.63733 29.1453 1.56933 29.1453C1.032 29.1453 0.516 29.1213 0 29.056C2.90667 30.9293 6.34933 32 10.064 32C21.6413 32 29.1867 22.3413 28.712 12.484Z" fill="#EDEFF3"/>
</g>
<defs>
<clipPath id="clip0">
<rect width="32" height="32" fill="white"/>
</clipPath>
</defs>
</svg>
