<svg width="283" height="141" viewBox="0 0 283 141" fill="none" xmlns="http://www.w3.org/2000/svg">
<g filter="url(#filter0_dd)">
<rect x="35" y="35" width="198" height="56" rx="4" fill="url(#paint0_linear)"/>
<path d="M79.736 68C79.4587 68 79.2667 67.8613 79.16 67.584L75.56 57.296L75.528 57.12C75.528 57.0347 75.56 56.96 75.624 56.896C75.6987 56.832 75.7787 56.8 75.864 56.8H76.632C76.7493 56.8 76.84 56.832 76.904 56.896C76.9787 56.9493 77.0267 57.0133 77.048 57.088L80.216 66.24L83.4 57.088C83.4213 57.0133 83.464 56.9493 83.528 56.896C83.6027 56.832 83.6987 56.8 83.816 56.8H84.584C84.6693 56.8 84.744 56.832 84.808 56.896C84.872 56.96 84.904 57.0347 84.904 57.12C84.904 57.1947 84.8987 57.2533 84.888 57.296L81.288 67.584C81.1813 67.8613 80.9893 68 80.712 68H79.736ZM86.8931 58.112C86.7865 58.112 86.6958 58.08 86.6211 58.016C86.5571 57.9413 86.5251 57.8507 86.5251 57.744V56.912C86.5251 56.8053 86.5571 56.7147 86.6211 56.64C86.6958 56.5653 86.7865 56.528 86.8931 56.528H87.8371C87.9438 56.528 88.0345 56.5653 88.1091 56.64C88.1838 56.7147 88.2211 56.8053 88.2211 56.912V57.744C88.2211 57.8507 88.1838 57.9413 88.1091 58.016C88.0345 58.08 87.9438 58.112 87.8371 58.112H86.8931ZM87.0211 68C86.9145 68 86.8238 67.968 86.7491 67.904C86.6851 67.8293 86.6531 67.7387 86.6531 67.632V60.048C86.6531 59.9413 86.6851 59.856 86.7491 59.792C86.8238 59.7173 86.9145 59.68 87.0211 59.68H87.7251C87.8318 59.68 87.9171 59.7173 87.9811 59.792C88.0558 59.856 88.0931 59.9413 88.0931 60.048V67.632C88.0931 67.7387 88.0558 67.8293 87.9811 67.904C87.9171 67.968 87.8318 68 87.7251 68H87.0211ZM93.7929 68.16C92.7049 68.16 91.8355 67.824 91.1849 67.152C90.5342 66.4693 90.1769 65.5413 90.1129 64.368L90.0969 63.824L90.1129 63.296C90.1769 62.144 90.5342 61.2267 91.1849 60.544C91.8355 59.8613 92.7049 59.52 93.7929 59.52C94.9662 59.52 95.8729 59.8933 96.5129 60.64C97.1635 61.3867 97.4889 62.4 97.4889 63.68V63.968C97.4889 64.0747 97.4515 64.1653 97.3769 64.24C97.3129 64.304 97.2275 64.336 97.1209 64.336H91.5689V64.48C91.6009 65.1733 91.8142 65.7653 92.2089 66.256C92.6035 66.7467 93.1262 66.992 93.7769 66.992C94.2782 66.992 94.6835 66.896 94.9929 66.704C95.3129 66.5013 95.5529 66.2933 95.7129 66.08C95.8089 65.952 95.8835 65.8773 95.9369 65.856C95.9902 65.824 96.0809 65.808 96.2089 65.808H96.9129C97.0089 65.808 97.0889 65.8347 97.1529 65.888C97.2275 65.9413 97.2649 66.0107 97.2649 66.096C97.2649 66.3307 97.1209 66.6133 96.8329 66.944C96.5449 67.2747 96.1342 67.5627 95.6009 67.808C95.0782 68.0427 94.4755 68.16 93.7929 68.16ZM96.0329 63.248V63.2C96.0329 62.4533 95.8302 61.8453 95.4249 61.376C95.0195 60.9067 94.4755 60.672 93.7929 60.672C93.0995 60.672 92.5555 60.9067 92.1609 61.376C91.7662 61.8453 91.5689 62.4533 91.5689 63.2V63.248H96.0329ZM101.424 68C101.274 68 101.162 67.968 101.088 67.904C101.013 67.84 100.954 67.7387 100.912 67.6L98.6396 60.176L98.6076 60.016C98.6076 59.92 98.6396 59.84 98.7036 59.776C98.7676 59.712 98.8476 59.68 98.9436 59.68H99.5996C99.7063 59.68 99.7916 59.712 99.8556 59.776C99.9303 59.8293 99.973 59.8827 99.9836 59.936L101.792 66.048L103.712 60.016C103.733 59.9307 103.781 59.856 103.856 59.792C103.93 59.7173 104.032 59.68 104.16 59.68H104.672C104.8 59.68 104.901 59.7173 104.976 59.792C105.05 59.856 105.098 59.9307 105.12 60.016L107.04 66.048L108.848 59.936C108.858 59.8827 108.896 59.8293 108.96 59.776C109.034 59.712 109.125 59.68 109.232 59.68H109.888C109.984 59.68 110.064 59.712 110.128 59.776C110.192 59.84 110.224 59.92 110.224 60.016L110.192 60.176L107.92 67.6C107.877 67.7387 107.818 67.84 107.744 67.904C107.669 67.968 107.557 68 107.408 68H106.832C106.554 68 106.373 67.8667 106.288 67.6L104.416 61.808L102.544 67.6C102.458 67.8667 102.277 68 102 68H101.424ZM118.674 68C118.396 68 118.204 67.8613 118.098 67.584L114.498 57.296L114.465 57.12C114.465 57.0347 114.498 56.96 114.562 56.896C114.636 56.832 114.716 56.8 114.802 56.8H115.57C115.687 56.8 115.778 56.832 115.842 56.896C115.916 56.9493 115.964 57.0133 115.986 57.088L119.154 66.24L122.338 57.088C122.359 57.0133 122.402 56.9493 122.466 56.896C122.54 56.832 122.636 56.8 122.753 56.8H123.522C123.607 56.8 123.682 56.832 123.746 56.896C123.81 56.96 123.842 57.0347 123.842 57.12C123.842 57.1947 123.836 57.2533 123.826 57.296L120.226 67.584C120.119 67.8613 119.927 68 119.65 68H118.674ZM128.139 68.16C126.965 68.16 126.059 67.8293 125.419 67.168C124.789 66.5067 124.453 65.6267 124.411 64.528L124.395 63.84L124.411 63.152C124.453 62.0533 124.795 61.1733 125.435 60.512C126.085 59.8507 126.987 59.52 128.139 59.52C129.291 59.52 130.187 59.8507 130.827 60.512C131.477 61.1733 131.824 62.0533 131.867 63.152C131.888 63.3867 131.899 63.616 131.899 63.84C131.899 64.064 131.888 64.2933 131.867 64.528C131.824 65.6267 131.483 66.5067 130.843 67.168C130.213 67.8293 129.312 68.16 128.139 68.16ZM128.139 66.96C128.821 66.96 129.36 66.7467 129.755 66.32C130.16 65.8827 130.379 65.2587 130.411 64.448C130.421 64.3413 130.427 64.1387 130.427 63.84C130.427 63.5413 130.421 63.3387 130.411 63.232C130.379 62.4213 130.16 61.8027 129.755 61.376C129.36 60.9387 128.821 60.72 128.139 60.72C127.456 60.72 126.912 60.9387 126.507 61.376C126.112 61.8027 125.899 62.4213 125.867 63.232L125.851 63.84L125.867 64.448C125.899 65.2587 126.112 65.8827 126.507 66.32C126.912 66.7467 127.456 66.96 128.139 66.96ZM134.303 68C134.196 68 134.105 67.968 134.031 67.904C133.967 67.8293 133.935 67.7387 133.935 67.632V57.008C133.935 56.8907 133.967 56.8 134.031 56.736C134.105 56.672 134.196 56.64 134.303 56.64H135.007C135.113 56.64 135.199 56.6773 135.263 56.752C135.337 56.816 135.375 56.9013 135.375 57.008V67.632C135.375 67.7387 135.337 67.8293 135.263 67.904C135.199 67.968 135.113 68 135.007 68H134.303ZM140.882 68.16C139.869 68.16 139.085 67.8347 138.53 67.184C137.975 66.5227 137.698 65.648 137.698 64.56V60.048C137.698 59.9413 137.73 59.856 137.794 59.792C137.869 59.7173 137.959 59.68 138.066 59.68H138.802C138.909 59.68 138.994 59.7173 139.058 59.792C139.133 59.856 139.17 59.9413 139.17 60.048V64.48C139.17 66.1013 139.874 66.912 141.282 66.912C141.965 66.912 142.503 66.6987 142.898 66.272C143.303 65.8347 143.506 65.2373 143.506 64.48V60.048C143.506 59.9413 143.538 59.856 143.602 59.792C143.677 59.7173 143.767 59.68 143.874 59.68H144.61C144.717 59.68 144.802 59.7173 144.866 59.792C144.941 59.856 144.978 59.9413 144.978 60.048V67.632C144.978 67.7387 144.941 67.8293 144.866 67.904C144.802 67.968 144.717 68 144.61 68H143.922C143.815 68 143.725 67.968 143.65 67.904C143.586 67.8293 143.554 67.7387 143.554 67.632V66.912C143.245 67.328 142.882 67.6427 142.466 67.856C142.05 68.0587 141.522 68.16 140.882 68.16ZM147.74 68C147.633 68 147.543 67.968 147.468 67.904C147.404 67.8293 147.372 67.7387 147.372 67.632V60.048C147.372 59.9413 147.404 59.856 147.468 59.792C147.543 59.7173 147.633 59.68 147.74 59.68H148.412C148.519 59.68 148.604 59.7173 148.668 59.792C148.732 59.856 148.764 59.9413 148.764 60.048V60.592C149.34 59.8773 150.119 59.52 151.1 59.52C152.273 59.52 153.105 60.0107 153.596 60.992C153.852 60.544 154.215 60.1867 154.684 59.92C155.164 59.6533 155.697 59.52 156.284 59.52C157.159 59.52 157.873 59.8187 158.428 60.416C158.983 61.0133 159.26 61.8773 159.26 63.008V67.632C159.26 67.7387 159.223 67.8293 159.148 67.904C159.084 67.968 158.999 68 158.892 68H158.204C158.097 68 158.007 67.968 157.932 67.904C157.868 67.8293 157.836 67.7387 157.836 67.632V63.152C157.836 62.2987 157.66 61.6907 157.308 61.328C156.956 60.9547 156.492 60.768 155.916 60.768C155.404 60.768 154.961 60.96 154.588 61.344C154.225 61.7173 154.044 62.32 154.044 63.152V67.632C154.044 67.7387 154.007 67.8293 153.932 67.904C153.868 67.968 153.783 68 153.676 68H152.972C152.865 68 152.775 67.968 152.7 67.904C152.636 67.8293 152.604 67.7387 152.604 67.632V63.152C152.604 62.3093 152.417 61.7013 152.044 61.328C151.681 60.9547 151.228 60.768 150.684 60.768C150.172 60.768 149.729 60.9547 149.356 61.328C148.993 61.7013 148.812 62.304 148.812 63.136V67.632C148.812 67.7387 148.775 67.8293 148.7 67.904C148.636 67.968 148.551 68 148.444 68H147.74ZM164.871 68.16C163.783 68.16 162.914 67.824 162.263 67.152C161.612 66.4693 161.255 65.5413 161.191 64.368L161.175 63.824L161.191 63.296C161.255 62.144 161.612 61.2267 162.263 60.544C162.914 59.8613 163.783 59.52 164.871 59.52C166.044 59.52 166.951 59.8933 167.591 60.64C168.242 61.3867 168.567 62.4 168.567 63.68V63.968C168.567 64.0747 168.53 64.1653 168.455 64.24C168.391 64.304 168.306 64.336 168.199 64.336H162.647V64.48C162.679 65.1733 162.892 65.7653 163.287 66.256C163.682 66.7467 164.204 66.992 164.855 66.992C165.356 66.992 165.762 66.896 166.071 66.704C166.391 66.5013 166.631 66.2933 166.791 66.08C166.887 65.952 166.962 65.8773 167.015 65.856C167.068 65.824 167.159 65.808 167.287 65.808H167.991C168.087 65.808 168.167 65.8347 168.231 65.888C168.306 65.9413 168.343 66.0107 168.343 66.096C168.343 66.3307 168.199 66.6133 167.911 66.944C167.623 67.2747 167.212 67.5627 166.679 67.808C166.156 68.0427 165.554 68.16 164.871 68.16ZM167.111 63.248V63.2C167.111 62.4533 166.908 61.8453 166.503 61.376C166.098 60.9067 165.554 60.672 164.871 60.672C164.178 60.672 163.634 60.9067 163.239 61.376C162.844 61.8453 162.647 62.4533 162.647 63.2V63.248H167.111ZM178.306 68.16C176.93 68.16 175.922 67.76 175.282 66.96C174.653 66.1493 174.317 65.0933 174.274 63.792L174.258 62.416L174.274 60.992C174.306 59.7013 174.642 58.656 175.282 57.856C175.933 57.0453 176.941 56.64 178.306 56.64C179.682 56.64 180.69 57.0453 181.33 57.856C181.981 58.656 182.322 59.7013 182.354 60.992C182.365 61.2907 182.37 61.7653 182.37 62.416C182.37 63.0453 182.365 63.504 182.354 63.792C182.311 65.0933 181.97 66.1493 181.33 66.96C180.701 67.76 179.693 68.16 178.306 68.16ZM178.306 66.832C179.127 66.832 179.746 66.56 180.162 66.016C180.578 65.472 180.797 64.704 180.818 63.712C180.829 63.4027 180.834 62.96 180.834 62.384C180.834 61.7973 180.829 61.36 180.818 61.072C180.797 60.0907 180.573 59.328 180.146 58.784C179.73 58.2293 179.117 57.952 178.306 57.952C177.495 57.952 176.882 58.2293 176.466 58.784C176.05 59.328 175.831 60.0907 175.81 61.072L175.794 62.384L175.81 63.712C175.831 64.704 176.05 65.472 176.466 66.016C176.882 66.56 177.495 66.832 178.306 66.832ZM184.527 68C184.42 68 184.33 67.968 184.255 67.904C184.191 67.8293 184.159 67.7387 184.159 67.632V67.152C184.159 66.9067 184.292 66.672 184.559 66.448L188.047 62.976C188.836 62.304 189.38 61.7547 189.679 61.328C189.978 60.9013 190.127 60.448 190.127 59.968C190.127 59.3387 189.951 58.848 189.599 58.496C189.247 58.1333 188.735 57.952 188.063 57.952C187.423 57.952 186.916 58.1387 186.543 58.512C186.17 58.8853 185.94 59.3867 185.855 60.016C185.834 60.1333 185.78 60.224 185.695 60.288C185.61 60.352 185.524 60.384 185.439 60.384H184.671C184.575 60.384 184.495 60.352 184.431 60.288C184.367 60.224 184.335 60.1493 184.335 60.064C184.356 59.4987 184.506 58.9547 184.783 58.432C185.071 57.8987 185.492 57.4667 186.047 57.136C186.602 56.7947 187.274 56.624 188.063 56.624C189.258 56.624 190.154 56.9387 190.751 57.568C191.359 58.1867 191.663 58.976 191.663 59.936C191.663 60.608 191.498 61.216 191.167 61.76C190.847 62.2933 190.34 62.8587 189.647 63.456L186.495 66.656H191.535C191.652 66.656 191.743 66.688 191.807 66.752C191.871 66.816 191.903 66.9067 191.903 67.024V67.632C191.903 67.7387 191.866 67.8293 191.791 67.904C191.727 67.968 191.642 68 191.535 68H184.527Z" fill="#EDEFF3"/>
<rect x="35.5" y="35.5" width="197" height="55" rx="3.5" stroke="url(#paint1_linear)"/>
</g>
<defs>
<filter id="filter0_dd" x="0" y="0" width="283" height="141" filterUnits="userSpaceOnUse" color-interpolation-filters="sRGB">
<feFlood flood-opacity="0" result="BackgroundImageFix"/>
<feColorMatrix in="SourceAlpha" type="matrix" values="0 0 0 0 0 0 0 0 0 0 0 0 0 0 0 0 0 0 127 0"/>
<feOffset dx="10" dy="10"/>
<feGaussianBlur stdDeviation="20"/>
<feColorMatrix type="matrix" values="0 0 0 0 0.0473958 0 0 0 0 0.0501042 0 0 0 0 0.0541667 0 0 0 1 0"/>
<feBlend mode="normal" in2="BackgroundImageFix" result="effect1_dropShadow"/>
<feColorMatrix in="SourceAlpha" type="matrix" values="0 0 0 0 0 0 0 0 0 0 0 0 0 0 0 0 0 0 127 0"/>
<feOffset dx="-5" dy="-5"/>
<feGaussianBlur stdDeviation="15"/>
<feColorMatrix type="matrix" values="0 0 0 0 1 0 0 0 0 1 0 0 0 0 1 0 0 0 0.25 0"/>
<feBlend mode="normal" in2="effect1_dropShadow" result="effect2_dropShadow"/>
<feBlend mode="normal" in="SourceGraphic" in2="effect2_dropShadow" result="shape"/>
</filter>
<linearGradient id="paint0_linear" x1="11.3923" y1="28" x2="237.12" y2="128.082" gradientUnits="userSpaceOnUse">
<stop stop-color="#793599"/>
<stop offset="1" stop-color="#133A9E"/>
</linearGradient>
<linearGradient id="paint1_linear" x1="17.18" y1="35" x2="236.725" y2="126.43" gradientUnits="userSpaceOnUse">
<stop stop-color="#E3D5F2"/>
<stop offset="1" stop-color="#27399E" stop-opacity="0"/>
</linearGradient>
</defs>
</svg>
